G75*
%MOIN*%
%OFA0B0*%
%FSLAX25Y25*%
%IPPOS*%
%LPD*%
%AMOC8*
5,1,8,0,0,1.08239X$1,22.5*
%
%ADD10C,0.01600*%
%ADD11R,0.06791X0.06791*%
%ADD12R,0.06024X0.06024*%
%ADD13C,0.06024*%
%ADD14R,0.05150X0.05150*%
%ADD15C,0.05150*%
%ADD16R,0.05740X0.05740*%
%ADD17C,0.05740*%
%ADD18R,0.08681X0.08681*%
%ADD19C,0.08681*%
%ADD20C,0.08685*%
%ADD21C,0.10000*%
%ADD22C,0.01000*%
%ADD23C,0.03600*%
%ADD24C,0.00600*%
%ADD25C,0.02400*%
D10*
X0030519Y0038647D02*
X0030519Y0231560D01*
X0223432Y0231560D01*
X0223432Y0038647D01*
X0030519Y0038647D01*
D11*
X0129692Y0205379D03*
X0129692Y0223096D03*
X0153314Y0223096D03*
X0169456Y0222820D03*
X0169456Y0205104D03*
X0153314Y0205379D03*
X0193078Y0205104D03*
X0193078Y0222820D03*
D12*
X0217763Y0201678D03*
D13*
X0217763Y0191678D03*
X0217763Y0181678D03*
X0217763Y0171678D03*
X0217763Y0161678D03*
X0217763Y0151678D03*
X0217763Y0141678D03*
X0217763Y0131678D03*
X0217763Y0121678D03*
X0217763Y0111678D03*
X0217763Y0101678D03*
X0217763Y0091678D03*
X0217763Y0081678D03*
X0217763Y0071678D03*
D14*
X0042330Y0221993D03*
D15*
X0042330Y0211993D03*
D16*
X0047645Y0160812D03*
D17*
X0037645Y0160812D03*
X0037645Y0150812D03*
X0047645Y0150812D03*
X0047645Y0140812D03*
X0037645Y0140812D03*
D18*
X0077015Y0062604D03*
D19*
X0163235Y0062604D03*
D20*
X0176621Y0055745D02*
X0176621Y0047060D01*
X0216621Y0047060D02*
X0216621Y0055745D01*
X0063365Y0047072D02*
X0054680Y0047072D01*
X0054680Y0087072D02*
X0063365Y0087072D01*
D21*
X0163235Y0062604D02*
X0165420Y0062604D01*
X0176621Y0051403D01*
D22*
X0202271Y0087367D02*
X0217526Y0072111D01*
X0217763Y0071678D01*
X0202271Y0087367D02*
X0113196Y0087367D01*
X0113196Y0133135D01*
X0115164Y0135104D01*
X0127467Y0135104D01*
X0129436Y0137072D01*
X0126483Y0131659D02*
X0116641Y0131659D01*
X0118609Y0117879D02*
X0116641Y0115911D01*
X0116641Y0091797D01*
X0217526Y0091797D01*
X0217763Y0091678D01*
X0217763Y0101678D02*
X0217526Y0102131D01*
X0189475Y0102131D01*
X0158471Y0133135D01*
X0161916Y0136580D02*
X0186523Y0111974D01*
X0217526Y0111974D01*
X0217763Y0111678D01*
X0204239Y0095241D02*
X0192920Y0095241D01*
X0170282Y0117879D01*
X0164377Y0117879D01*
X0155026Y0127230D01*
X0164869Y0114434D02*
X0120086Y0114434D01*
X0119101Y0117879D02*
X0118609Y0117879D01*
X0119101Y0117879D02*
X0131404Y0130182D01*
X0129928Y0117879D02*
X0154042Y0141993D01*
X0170282Y0141993D01*
X0097940Y0117879D02*
X0059554Y0156265D01*
X0042330Y0156265D01*
X0037900Y0160694D01*
X0037645Y0160812D01*
X0037645Y0140812D02*
X0037900Y0140517D01*
X0041837Y0136580D01*
X0072349Y0136580D01*
X0094495Y0114434D01*
X0090558Y0182348D02*
X0090558Y0184808D01*
X0051680Y0184808D01*
X0070381Y0209907D02*
X0090066Y0209907D01*
X0089082Y0216797D02*
X0070381Y0216797D01*
X0090558Y0194159D02*
X0090558Y0184808D01*
X0090558Y0194159D02*
X0114180Y0217781D01*
D23*
X0114180Y0217781D03*
X0089082Y0216797D03*
X0090066Y0209907D03*
X0070381Y0209907D03*
X0070381Y0216797D03*
X0051680Y0184808D03*
X0090558Y0182348D03*
X0129436Y0137072D03*
X0126483Y0131659D03*
X0131404Y0130182D03*
X0129928Y0117879D03*
X0120086Y0114434D03*
X0116641Y0131659D03*
X0097940Y0117879D03*
X0094495Y0114434D03*
X0155026Y0127230D03*
X0158471Y0133135D03*
X0161916Y0136580D03*
X0170282Y0141993D03*
X0164869Y0114434D03*
X0204239Y0095241D03*
D24*
X0217763Y0131678D02*
X0217526Y0133135D01*
X0213589Y0137072D01*
X0213589Y0196127D01*
X0217526Y0200064D01*
X0217763Y0201678D01*
X0193078Y0205104D02*
X0191936Y0204001D01*
X0166345Y0178411D01*
X0152566Y0204001D02*
X0153314Y0205379D01*
X0152566Y0204001D02*
X0136818Y0188253D01*
X0136818Y0162663D01*
X0128944Y0162663D02*
X0128944Y0204001D01*
X0129692Y0205379D01*
X0128944Y0205970D01*
X0125007Y0209907D01*
X0125007Y0221718D01*
X0095479Y0221718D01*
X0079731Y0219749D02*
X0046267Y0219749D01*
X0046267Y0217781D01*
X0042330Y0213844D01*
X0042330Y0211993D01*
X0048235Y0162663D02*
X0047645Y0160812D01*
X0048235Y0162663D02*
X0117133Y0162663D01*
X0117133Y0158726D01*
X0117133Y0162663D02*
X0128944Y0162663D01*
D25*
X0136818Y0162663D03*
X0117133Y0158726D03*
X0166345Y0178411D03*
X0095479Y0221718D03*
X0079731Y0219749D03*
M02*
