G75*
%MOIN*%
%OFA0B0*%
%FSLAX25Y25*%
%IPPOS*%
%LPD*%
%AMOC8*
5,1,8,0,0,1.08239X$1,22.5*
%
%ADD10C,0.01600*%
%ADD11R,0.04800X0.06100*%
%ADD12R,0.06100X0.04800*%
%ADD13R,0.05400X0.02600*%
%ADD14R,0.02600X0.05400*%
%ADD15R,0.07191X0.07191*%
%ADD16R,0.01975X0.06699*%
%ADD17R,0.02600X0.02800*%
%ADD18R,0.06699X0.01975*%
%ADD19R,0.06424X0.06424*%
%ADD20C,0.06424*%
%ADD21R,0.05550X0.05550*%
%ADD22C,0.05550*%
%ADD23R,0.06140X0.06140*%
%ADD24C,0.06140*%
%ADD25R,0.09081X0.09081*%
%ADD26C,0.09081*%
%ADD27C,0.09085*%
%ADD28R,0.02762X0.01345*%
%ADD29R,0.06896X0.09849*%
%ADD30R,0.03156X0.05124*%
%ADD31R,0.21660X0.05124*%
D10*
X0030519Y0038647D02*
X0030519Y0231560D01*
X0223432Y0231560D01*
X0223432Y0038647D01*
X0030519Y0038647D01*
D11*
X0055276Y0190734D03*
X0062376Y0190734D03*
X0079410Y0197584D03*
X0086510Y0197584D03*
X0081706Y0225300D03*
X0074606Y0225300D03*
D12*
X0064495Y0214756D03*
X0064495Y0207656D03*
D13*
X0111178Y0136718D03*
X0111178Y0133568D03*
X0111178Y0130419D03*
X0111178Y0127269D03*
X0111178Y0124119D03*
X0111178Y0120970D03*
X0111178Y0117820D03*
X0111178Y0114671D03*
X0144978Y0114671D03*
X0144978Y0117820D03*
X0144978Y0120970D03*
X0144978Y0124119D03*
X0144978Y0127269D03*
X0144978Y0130419D03*
X0144978Y0133568D03*
X0144978Y0136718D03*
D14*
X0139101Y0142594D03*
X0135952Y0142594D03*
X0132802Y0142594D03*
X0129652Y0142594D03*
X0126503Y0142594D03*
X0123353Y0142594D03*
X0120204Y0142594D03*
X0117054Y0142594D03*
X0117054Y0108794D03*
X0120204Y0108794D03*
X0123353Y0108794D03*
X0126503Y0108794D03*
X0129652Y0108794D03*
X0132802Y0108794D03*
X0135952Y0108794D03*
X0139101Y0108794D03*
D15*
X0129692Y0205379D03*
X0129692Y0223096D03*
X0153314Y0223096D03*
X0169456Y0222820D03*
X0169456Y0205104D03*
X0153314Y0205379D03*
X0193078Y0205104D03*
X0193078Y0222820D03*
D16*
X0157566Y0168056D03*
X0146936Y0168056D03*
X0123314Y0179867D03*
X0112684Y0179867D03*
X0108747Y0164119D03*
X0098117Y0164119D03*
D17*
X0086736Y0184395D03*
X0083436Y0184395D03*
X0055043Y0180458D03*
X0051743Y0180458D03*
D18*
X0166267Y0159237D03*
X0166267Y0148608D03*
X0178235Y0150340D03*
X0178235Y0139710D03*
X0174298Y0123962D03*
X0174298Y0113332D03*
X0174298Y0105458D03*
X0174298Y0094828D03*
X0188668Y0099159D03*
X0188668Y0109789D03*
D19*
X0217763Y0201678D03*
D20*
X0217763Y0191678D03*
X0217763Y0181678D03*
X0217763Y0171678D03*
X0217763Y0161678D03*
X0217763Y0151678D03*
X0217763Y0141678D03*
X0217763Y0131678D03*
X0217763Y0121678D03*
X0217763Y0111678D03*
X0217763Y0101678D03*
X0217763Y0091678D03*
X0217763Y0081678D03*
X0217763Y0071678D03*
D21*
X0042330Y0221993D03*
D22*
X0042330Y0211993D03*
D23*
X0047645Y0160812D03*
D24*
X0037645Y0160812D03*
X0037645Y0150812D03*
X0047645Y0150812D03*
X0047645Y0140812D03*
X0037645Y0140812D03*
D25*
X0077015Y0062604D03*
D26*
X0163235Y0062604D03*
D27*
X0176621Y0055745D02*
X0176621Y0047060D01*
X0216621Y0047060D02*
X0216621Y0055745D01*
X0063365Y0047072D02*
X0054680Y0047072D01*
X0054680Y0087072D02*
X0063365Y0087072D01*
D28*
X0094456Y0210261D03*
X0094456Y0212230D03*
X0094456Y0214198D03*
X0094456Y0216167D03*
X0094456Y0218135D03*
X0105479Y0218135D03*
X0105479Y0216167D03*
X0105479Y0214198D03*
X0105479Y0212230D03*
X0105479Y0210261D03*
D29*
X0099967Y0214198D03*
D30*
X0090164Y0117190D03*
X0090164Y0104592D03*
D31*
X0076188Y0104592D03*
X0076188Y0117190D03*
M02*
