G75*
%MOIN*%
%OFA0B0*%
%FSLAX25Y25*%
%IPPOS*%
%LPD*%
%AMOC8*
5,1,8,0,0,1.08239X$1,22.5*
%
%ADD10C,0.00300*%
%ADD11C,0.01600*%
%ADD12C,0.00600*%
%ADD13C,0.00500*%
%ADD14C,0.00400*%
%ADD15C,0.01000*%
%ADD16C,0.00800*%
D10*
X0117328Y0145844D02*
X0118295Y0145844D01*
X0117811Y0145844D02*
X0117811Y0148747D01*
X0117328Y0148747D02*
X0118295Y0148747D01*
X0119292Y0148263D02*
X0119292Y0146328D01*
X0119776Y0145844D01*
X0120743Y0145844D01*
X0121227Y0146328D01*
X0122239Y0145844D02*
X0124173Y0145844D01*
X0123206Y0145844D02*
X0123206Y0148747D01*
X0122239Y0147779D01*
X0121227Y0148263D02*
X0120743Y0148747D01*
X0119776Y0148747D01*
X0119292Y0148263D01*
X0112053Y0178108D02*
X0112837Y0178892D01*
X0112837Y0182028D01*
X0112053Y0182812D01*
X0109701Y0182812D01*
X0109701Y0178108D01*
X0112053Y0178108D01*
X0108234Y0178108D02*
X0105098Y0178108D01*
X0105098Y0182812D01*
X0108234Y0182812D01*
X0107699Y0182045D02*
X0104563Y0182045D01*
X0107699Y0185181D01*
X0107699Y0185965D01*
X0106915Y0186749D01*
X0105347Y0186749D01*
X0104563Y0185965D01*
X0103095Y0185965D02*
X0099959Y0182829D01*
X0100743Y0182045D01*
X0102311Y0182045D01*
X0103095Y0182829D01*
X0103095Y0185965D01*
X0102311Y0186749D01*
X0100743Y0186749D01*
X0099959Y0185965D01*
X0099959Y0182829D01*
X0100494Y0182812D02*
X0100494Y0178108D01*
X0100494Y0179676D02*
X0103630Y0182812D01*
X0105098Y0180460D02*
X0106666Y0180460D01*
X0109167Y0182045D02*
X0112303Y0182045D01*
X0113771Y0182045D02*
X0113771Y0186749D01*
X0115339Y0185181D01*
X0116907Y0186749D01*
X0116907Y0182045D01*
X0118375Y0182829D02*
X0121511Y0185965D01*
X0121511Y0182829D01*
X0120727Y0182045D01*
X0119159Y0182045D01*
X0118375Y0182829D01*
X0118375Y0185965D01*
X0119159Y0186749D01*
X0120727Y0186749D01*
X0121511Y0185965D01*
X0122979Y0185965D02*
X0123763Y0186749D01*
X0125331Y0186749D01*
X0126115Y0185965D01*
X0122979Y0182829D01*
X0123763Y0182045D01*
X0125331Y0182045D01*
X0126115Y0182829D01*
X0126115Y0185965D01*
X0127583Y0186749D02*
X0130719Y0186749D01*
X0132187Y0186749D02*
X0132187Y0182045D01*
X0132187Y0183613D02*
X0135323Y0186749D01*
X0136790Y0186749D02*
X0136790Y0182045D01*
X0139926Y0182045D01*
X0141394Y0182045D02*
X0143746Y0182045D01*
X0144530Y0182829D01*
X0144530Y0185965D01*
X0143746Y0186749D01*
X0141394Y0186749D01*
X0141394Y0182045D01*
X0138358Y0184397D02*
X0136790Y0184397D01*
X0136790Y0186749D02*
X0139926Y0186749D01*
X0135323Y0182045D02*
X0132971Y0184397D01*
X0129151Y0184397D02*
X0127583Y0184397D01*
X0127583Y0182045D02*
X0127583Y0186749D01*
X0122979Y0185965D02*
X0122979Y0182829D01*
X0110735Y0182045D02*
X0110735Y0186749D01*
X0109167Y0185181D01*
X0103630Y0178108D02*
X0101278Y0180460D01*
X0099026Y0182812D02*
X0095890Y0182812D01*
X0095890Y0178108D01*
X0094422Y0178108D02*
X0092070Y0180460D01*
X0091286Y0179676D02*
X0094422Y0182812D01*
X0093887Y0182829D02*
X0093103Y0182045D01*
X0091535Y0182045D01*
X0090751Y0182829D01*
X0093887Y0185965D01*
X0093887Y0182829D01*
X0095355Y0184397D02*
X0098491Y0184397D01*
X0097707Y0182045D02*
X0097707Y0186749D01*
X0095355Y0184397D01*
X0093887Y0185965D02*
X0093103Y0186749D01*
X0091535Y0186749D01*
X0090751Y0185965D01*
X0090751Y0182829D01*
X0091286Y0182812D02*
X0091286Y0178108D01*
X0089818Y0178892D02*
X0089034Y0178108D01*
X0087466Y0178108D01*
X0086682Y0178892D01*
X0086682Y0179676D01*
X0087466Y0180460D01*
X0089034Y0180460D01*
X0089818Y0179676D01*
X0089818Y0178892D01*
X0089034Y0180460D02*
X0089818Y0181244D01*
X0089818Y0182028D01*
X0089034Y0182812D01*
X0087466Y0182812D01*
X0086682Y0182028D01*
X0086682Y0181244D01*
X0087466Y0180460D01*
X0086147Y0182045D02*
X0087715Y0183613D01*
X0089283Y0182045D01*
X0089283Y0186749D01*
X0086279Y0185965D02*
X0085495Y0186749D01*
X0083927Y0186749D01*
X0083143Y0185965D01*
X0083143Y0185181D01*
X0083927Y0184397D01*
X0086279Y0184397D01*
X0086279Y0182829D02*
X0086279Y0185965D01*
X0086147Y0186749D02*
X0086147Y0182045D01*
X0085495Y0182045D02*
X0086279Y0182829D01*
X0085214Y0182812D02*
X0085214Y0182028D01*
X0082078Y0178892D01*
X0082078Y0178108D01*
X0080610Y0178108D02*
X0077474Y0178108D01*
X0076006Y0178108D02*
X0072870Y0178108D01*
X0076006Y0181244D01*
X0076006Y0182028D01*
X0075222Y0182812D01*
X0073654Y0182812D01*
X0072870Y0182028D01*
X0073120Y0182045D02*
X0072336Y0182829D01*
X0072336Y0185965D01*
X0073120Y0186749D01*
X0074688Y0186749D01*
X0075472Y0185965D01*
X0076288Y0186749D02*
X0073936Y0186749D01*
X0073936Y0182045D01*
X0074688Y0182045D02*
X0075472Y0182829D01*
X0075504Y0183613D02*
X0077072Y0182045D01*
X0076939Y0182045D02*
X0076939Y0186749D01*
X0079291Y0186749D01*
X0080075Y0185965D01*
X0080075Y0184397D01*
X0079291Y0183613D01*
X0076939Y0183613D01*
X0076288Y0183613D02*
X0073936Y0183613D01*
X0074688Y0182045D02*
X0073120Y0182045D01*
X0071402Y0182028D02*
X0071402Y0178892D01*
X0070618Y0178108D01*
X0069050Y0178108D01*
X0068266Y0178892D01*
X0071402Y0182028D01*
X0070618Y0182812D01*
X0069050Y0182812D01*
X0068266Y0182028D01*
X0068266Y0178892D01*
X0066798Y0180460D02*
X0063662Y0180460D01*
X0066014Y0182812D01*
X0066014Y0178108D01*
X0062194Y0178892D02*
X0062194Y0182028D01*
X0059058Y0178892D01*
X0059842Y0178108D01*
X0061410Y0178108D01*
X0062194Y0178892D01*
X0059058Y0178892D02*
X0059058Y0182028D01*
X0059842Y0182812D01*
X0061410Y0182812D01*
X0062194Y0182028D01*
X0057590Y0182812D02*
X0057590Y0178108D01*
X0056022Y0179676D01*
X0054454Y0178108D01*
X0054454Y0182812D01*
X0053802Y0182812D02*
X0054586Y0182028D01*
X0051450Y0178892D01*
X0052234Y0178108D01*
X0053802Y0178108D01*
X0054586Y0178892D01*
X0054586Y0182028D01*
X0053802Y0182812D02*
X0052234Y0182812D01*
X0051450Y0182028D01*
X0051450Y0178892D01*
X0052202Y0178108D02*
X0050634Y0178108D01*
X0049850Y0178892D01*
X0049850Y0182028D01*
X0050634Y0182812D01*
X0052202Y0182812D01*
X0052986Y0182028D01*
X0049983Y0182028D02*
X0049199Y0182812D01*
X0047631Y0182812D01*
X0046847Y0182028D01*
X0047599Y0182812D02*
X0048383Y0182028D01*
X0048383Y0180460D01*
X0047599Y0179676D01*
X0045247Y0179676D01*
X0044595Y0179676D02*
X0042243Y0179676D01*
X0043811Y0179676D02*
X0045379Y0178108D01*
X0045247Y0178108D02*
X0045247Y0182812D01*
X0047599Y0182812D01*
X0045379Y0182028D02*
X0045379Y0180460D01*
X0044595Y0179676D01*
X0043779Y0178892D02*
X0042995Y0178108D01*
X0041427Y0178108D01*
X0040643Y0178892D01*
X0040643Y0182028D01*
X0041427Y0182812D01*
X0042995Y0182812D01*
X0043779Y0182028D01*
X0044595Y0182812D02*
X0045379Y0182028D01*
X0044595Y0182812D02*
X0042243Y0182812D01*
X0042243Y0178108D01*
X0046847Y0178108D02*
X0049983Y0181244D01*
X0049983Y0182028D01*
X0049983Y0178108D02*
X0046847Y0178108D01*
X0048383Y0178108D02*
X0046815Y0179676D01*
X0052202Y0178108D02*
X0052986Y0178892D01*
X0051592Y0188380D02*
X0051592Y0193084D01*
X0053160Y0193084D02*
X0050024Y0193084D01*
X0048556Y0193084D02*
X0045420Y0189948D01*
X0045420Y0189164D01*
X0046204Y0188380D01*
X0047772Y0188380D01*
X0048556Y0189164D01*
X0051592Y0188380D02*
X0053160Y0189948D01*
X0054628Y0189948D02*
X0054628Y0189164D01*
X0055412Y0188380D01*
X0056980Y0188380D01*
X0057764Y0189164D01*
X0059232Y0188380D02*
X0062368Y0191516D01*
X0062236Y0191516D02*
X0062236Y0192300D01*
X0063020Y0193084D01*
X0064588Y0193084D01*
X0065372Y0192300D01*
X0066840Y0192300D02*
X0067624Y0193084D01*
X0069192Y0193084D01*
X0069976Y0192300D01*
X0069976Y0189164D01*
X0069192Y0188380D01*
X0067624Y0188380D01*
X0066840Y0189164D01*
X0066972Y0188380D02*
X0065404Y0189948D01*
X0063836Y0188380D01*
X0063836Y0193084D01*
X0062368Y0193084D02*
X0062368Y0188380D01*
X0063020Y0188380D02*
X0062236Y0189164D01*
X0062236Y0189948D01*
X0063020Y0190732D01*
X0062236Y0191516D01*
X0061584Y0190732D02*
X0059232Y0193084D01*
X0057764Y0193084D02*
X0054628Y0189948D01*
X0054628Y0193084D02*
X0057764Y0193084D01*
X0063020Y0190732D02*
X0063804Y0190732D01*
X0065372Y0189164D02*
X0064588Y0188380D01*
X0063020Y0188380D01*
X0066972Y0188380D02*
X0066972Y0193084D01*
X0068440Y0193084D02*
X0071576Y0193084D01*
X0071576Y0188380D01*
X0076288Y0186749D02*
X0077072Y0185965D01*
X0077072Y0184397D01*
X0076288Y0183613D01*
X0078507Y0183613D02*
X0080075Y0182045D01*
X0080107Y0182045D02*
X0080107Y0186749D01*
X0078539Y0185181D01*
X0079042Y0182812D02*
X0077474Y0181244D01*
X0078539Y0182045D02*
X0081675Y0182045D01*
X0082327Y0182045D02*
X0081543Y0182829D01*
X0081543Y0185965D01*
X0082327Y0186749D01*
X0083895Y0186749D01*
X0084679Y0185965D01*
X0084679Y0182829D02*
X0083895Y0182045D01*
X0082327Y0182045D01*
X0082078Y0182812D02*
X0085214Y0182812D01*
X0085495Y0182045D02*
X0083927Y0182045D01*
X0083143Y0182829D01*
X0079042Y0182812D02*
X0079042Y0178108D01*
X0095890Y0180460D02*
X0097458Y0180460D01*
X0097833Y0195234D02*
X0100185Y0195234D01*
X0100969Y0196018D01*
X0100969Y0196802D01*
X0100185Y0197586D01*
X0097833Y0197586D01*
X0096365Y0198370D02*
X0096365Y0199154D01*
X0095581Y0199938D01*
X0094013Y0199938D01*
X0093229Y0199154D01*
X0090193Y0199938D02*
X0088625Y0198370D01*
X0087157Y0198370D02*
X0087157Y0199154D01*
X0086373Y0199938D01*
X0084805Y0199938D01*
X0084021Y0199154D01*
X0082553Y0199938D02*
X0079417Y0196802D01*
X0080201Y0197586D02*
X0082553Y0195234D01*
X0084021Y0195234D02*
X0087157Y0198370D01*
X0087157Y0195234D02*
X0084021Y0195234D01*
X0079549Y0195234D02*
X0076413Y0195234D01*
X0079549Y0198370D01*
X0079549Y0199154D01*
X0078765Y0199938D01*
X0077197Y0199938D01*
X0076413Y0199154D01*
X0076381Y0198370D02*
X0077949Y0199938D01*
X0077949Y0195234D01*
X0079417Y0195234D02*
X0079417Y0199938D01*
X0076381Y0198370D02*
X0074813Y0199938D01*
X0074813Y0195234D01*
X0074162Y0195234D02*
X0074946Y0196018D01*
X0074162Y0195234D02*
X0072594Y0195234D01*
X0071810Y0196018D01*
X0071810Y0199154D01*
X0072594Y0199938D01*
X0074162Y0199938D01*
X0074946Y0199154D01*
X0070210Y0199938D02*
X0070210Y0195234D01*
X0073346Y0195234D01*
X0066845Y0198456D02*
X0066845Y0201592D01*
X0066845Y0201624D02*
X0066845Y0200056D01*
X0066845Y0200840D02*
X0062141Y0200840D01*
X0062141Y0200056D02*
X0062141Y0201624D01*
X0062925Y0203060D02*
X0062141Y0203844D01*
X0062141Y0205412D01*
X0062925Y0206196D01*
X0066061Y0206196D01*
X0066845Y0205412D01*
X0066845Y0203844D01*
X0066061Y0203060D01*
X0062925Y0203060D01*
X0063709Y0203125D02*
X0062141Y0204693D01*
X0066845Y0204693D01*
X0066845Y0206196D02*
X0065277Y0204628D01*
X0066845Y0203125D02*
X0066845Y0206261D01*
X0066845Y0207664D02*
X0062141Y0207664D01*
X0063709Y0209232D01*
X0062141Y0210800D01*
X0066845Y0210800D01*
X0066845Y0212268D02*
X0063709Y0215404D01*
X0062925Y0215404D01*
X0062141Y0214620D01*
X0062141Y0213052D01*
X0062925Y0212268D01*
X0066845Y0212268D02*
X0066845Y0215404D01*
X0066845Y0216872D02*
X0066845Y0220008D01*
X0066845Y0221476D02*
X0062141Y0221476D01*
X0062141Y0223828D01*
X0062925Y0224612D01*
X0064493Y0224612D01*
X0065277Y0223828D01*
X0065277Y0221476D01*
X0065406Y0222950D02*
X0068542Y0222950D01*
X0067790Y0222950D02*
X0069358Y0222950D01*
X0070142Y0223734D01*
X0070010Y0222950D02*
X0070010Y0227654D01*
X0071578Y0226086D01*
X0073146Y0227654D01*
X0073146Y0222950D01*
X0073178Y0222950D02*
X0073178Y0227654D01*
X0071610Y0226086D01*
X0070142Y0226870D02*
X0069358Y0227654D01*
X0067790Y0227654D01*
X0067006Y0226870D01*
X0067006Y0223734D01*
X0067790Y0222950D01*
X0065406Y0222950D02*
X0065406Y0227654D01*
X0066845Y0229216D02*
X0062141Y0229216D01*
X0063709Y0230683D02*
X0062141Y0232251D01*
X0066845Y0232251D01*
X0066845Y0230683D02*
X0066845Y0233819D01*
X0066845Y0235287D02*
X0062141Y0235287D01*
X0062141Y0237639D01*
X0062925Y0238423D01*
X0064493Y0238423D01*
X0065277Y0237639D01*
X0065277Y0235287D01*
X0065277Y0236855D02*
X0066845Y0238423D01*
X0066061Y0239891D02*
X0066845Y0240675D01*
X0066845Y0242243D01*
X0066061Y0243027D01*
X0064493Y0243027D01*
X0063709Y0242243D01*
X0063709Y0241459D01*
X0064493Y0239891D01*
X0062141Y0239891D01*
X0062141Y0243027D01*
X0062141Y0244495D02*
X0063709Y0246063D01*
X0062141Y0247631D01*
X0066845Y0247631D01*
X0066061Y0249099D02*
X0066845Y0249883D01*
X0066845Y0251451D01*
X0066061Y0252235D01*
X0066061Y0253703D02*
X0062925Y0256839D01*
X0066061Y0256839D01*
X0066845Y0256055D01*
X0066845Y0254487D01*
X0066061Y0253703D01*
X0062925Y0253703D01*
X0062141Y0254487D01*
X0062141Y0256055D01*
X0062925Y0256839D01*
X0062141Y0258307D02*
X0062141Y0260659D01*
X0062925Y0261443D01*
X0066061Y0261443D01*
X0066845Y0260659D01*
X0066845Y0258307D01*
X0062141Y0258307D01*
X0062925Y0252235D02*
X0062141Y0251451D01*
X0062141Y0249883D01*
X0062925Y0249099D01*
X0066061Y0249099D01*
X0066845Y0244495D02*
X0062141Y0244495D01*
X0066845Y0229216D02*
X0062141Y0226080D01*
X0066845Y0226080D01*
X0071610Y0222950D02*
X0074746Y0222950D01*
X0074614Y0222950D02*
X0074614Y0227654D01*
X0075398Y0225302D02*
X0077750Y0222950D01*
X0079218Y0222950D02*
X0082354Y0226086D01*
X0082354Y0226870D01*
X0081570Y0227654D01*
X0080002Y0227654D01*
X0079218Y0226870D01*
X0077750Y0227654D02*
X0074614Y0224518D01*
X0079218Y0222950D02*
X0082354Y0222950D01*
X0083822Y0222950D02*
X0086958Y0222950D01*
X0088426Y0222950D02*
X0091562Y0226086D01*
X0091562Y0226870D01*
X0090778Y0227654D01*
X0089210Y0227654D01*
X0088426Y0226870D01*
X0088410Y0226001D02*
X0088410Y0222081D01*
X0087626Y0221297D01*
X0086058Y0221297D01*
X0085274Y0222081D01*
X0085274Y0226001D01*
X0083822Y0226086D02*
X0085390Y0227654D01*
X0085390Y0222950D01*
X0088426Y0222950D02*
X0091562Y0222950D01*
X0093030Y0222950D02*
X0095382Y0222950D01*
X0096166Y0223734D01*
X0096166Y0224518D01*
X0095382Y0225302D01*
X0093030Y0225302D01*
X0091446Y0226001D02*
X0091446Y0221297D01*
X0089878Y0221297D02*
X0093014Y0221297D01*
X0093030Y0222950D02*
X0093030Y0227654D01*
X0095382Y0227654D01*
X0096166Y0226870D01*
X0096166Y0226086D01*
X0095382Y0225302D01*
X0097634Y0223734D02*
X0098418Y0222950D01*
X0099202Y0222950D01*
X0099986Y0223734D01*
X0099986Y0227654D01*
X0099202Y0227654D02*
X0100770Y0227654D01*
X0102238Y0226086D02*
X0103806Y0227654D01*
X0103806Y0222950D01*
X0102238Y0222950D02*
X0105374Y0222950D01*
X0106842Y0223734D02*
X0109978Y0226870D01*
X0109978Y0223734D01*
X0109194Y0222950D01*
X0107626Y0222950D01*
X0106842Y0223734D01*
X0106842Y0226870D01*
X0107626Y0227654D01*
X0109194Y0227654D01*
X0109978Y0226870D01*
X0111446Y0225302D02*
X0113798Y0225302D01*
X0114582Y0224518D01*
X0114582Y0223734D01*
X0113798Y0222950D01*
X0112230Y0222950D01*
X0111446Y0223734D01*
X0111446Y0225302D01*
X0113014Y0226870D01*
X0114582Y0227654D01*
X0116050Y0227654D02*
X0116050Y0222950D01*
X0116050Y0224518D02*
X0119186Y0227654D01*
X0120653Y0226870D02*
X0120653Y0223734D01*
X0121437Y0222950D01*
X0123005Y0222950D01*
X0123789Y0223734D01*
X0123789Y0225302D01*
X0122221Y0225302D01*
X0120653Y0226870D02*
X0121437Y0227654D01*
X0123005Y0227654D01*
X0123789Y0226870D01*
X0125257Y0225302D02*
X0128393Y0225302D01*
X0129861Y0227654D02*
X0132997Y0227654D01*
X0131429Y0227654D02*
X0131429Y0222950D01*
X0119186Y0222950D02*
X0116834Y0225302D01*
X0091446Y0226001D02*
X0089878Y0224433D01*
X0066845Y0218440D02*
X0062141Y0218440D01*
X0063709Y0216872D01*
X0062141Y0198456D02*
X0066845Y0198456D01*
X0048556Y0193084D02*
X0045420Y0193084D01*
X0043952Y0193084D02*
X0041600Y0193084D01*
X0040816Y0192300D01*
X0040816Y0191516D01*
X0041600Y0190732D01*
X0043952Y0190732D01*
X0043952Y0193084D02*
X0043952Y0188380D01*
X0041600Y0188380D01*
X0040816Y0189164D01*
X0040816Y0189948D01*
X0041600Y0190732D01*
X0039348Y0192300D02*
X0038564Y0193084D01*
X0037780Y0193084D01*
X0036996Y0192300D01*
X0036996Y0188380D01*
X0037780Y0188380D02*
X0036212Y0188380D01*
X0034744Y0189164D02*
X0033960Y0188380D01*
X0032392Y0188380D01*
X0031608Y0189164D01*
X0031608Y0189948D01*
X0034744Y0193084D01*
X0031608Y0193084D01*
X0030140Y0193084D02*
X0027004Y0189948D01*
X0027004Y0189164D01*
X0027788Y0188380D01*
X0029356Y0188380D01*
X0030140Y0189164D01*
X0030140Y0193084D02*
X0027004Y0193084D01*
X0025536Y0192300D02*
X0024752Y0193084D01*
X0023184Y0193084D01*
X0022400Y0192300D01*
X0022400Y0191516D01*
X0023184Y0190732D01*
X0025536Y0190732D01*
X0025536Y0192300D01*
X0025536Y0190732D02*
X0023968Y0189164D01*
X0022400Y0188380D01*
X0020933Y0188380D02*
X0019365Y0189948D01*
X0017796Y0188380D01*
X0017796Y0193084D01*
X0016329Y0192300D02*
X0015545Y0193084D01*
X0013977Y0193084D01*
X0013193Y0192300D01*
X0013193Y0190732D01*
X0014761Y0190732D01*
X0016329Y0189164D02*
X0016329Y0192300D01*
X0016329Y0189164D02*
X0015545Y0188380D01*
X0013977Y0188380D01*
X0013193Y0189164D01*
X0011725Y0190732D02*
X0008589Y0190732D01*
X0007121Y0188380D02*
X0003985Y0188380D01*
X0005553Y0188380D02*
X0005553Y0193084D01*
X0020933Y0193084D02*
X0020933Y0188380D01*
X0088625Y0195234D02*
X0091761Y0195234D01*
X0093229Y0195234D02*
X0096365Y0198370D01*
X0097833Y0199938D02*
X0097833Y0195234D01*
X0096365Y0195234D02*
X0093229Y0195234D01*
X0090193Y0195234D02*
X0090193Y0199938D01*
X0097833Y0199938D02*
X0100185Y0199938D01*
X0100969Y0199154D01*
X0100969Y0198370D01*
X0100185Y0197586D01*
X0102437Y0196018D02*
X0103221Y0195234D01*
X0104005Y0195234D01*
X0104789Y0196018D01*
X0104789Y0199938D01*
X0104005Y0199938D02*
X0105573Y0199938D01*
X0107041Y0199154D02*
X0107825Y0199938D01*
X0109393Y0199938D01*
X0110177Y0199154D01*
X0110177Y0198370D01*
X0107041Y0195234D01*
X0110177Y0195234D01*
X0111645Y0195234D02*
X0114781Y0198370D01*
X0114781Y0199154D01*
X0113997Y0199938D01*
X0112429Y0199938D01*
X0111645Y0199154D01*
X0111645Y0195234D02*
X0114781Y0195234D01*
X0116249Y0196018D02*
X0116249Y0197586D01*
X0118601Y0197586D01*
X0119385Y0196802D01*
X0119385Y0196018D01*
X0118601Y0195234D01*
X0117033Y0195234D01*
X0116249Y0196018D01*
X0116249Y0197586D02*
X0117817Y0199154D01*
X0119385Y0199938D01*
X0120853Y0199938D02*
X0122421Y0198370D01*
X0123989Y0199938D01*
X0123989Y0195234D01*
X0125457Y0196018D02*
X0126241Y0195234D01*
X0127809Y0195234D01*
X0128593Y0196018D01*
X0128593Y0197586D01*
X0127025Y0197586D01*
X0128593Y0199154D02*
X0127809Y0199938D01*
X0126241Y0199938D01*
X0125457Y0199154D01*
X0125457Y0196018D01*
X0130061Y0197586D02*
X0133197Y0197586D01*
X0134664Y0199938D02*
X0137800Y0199938D01*
X0136232Y0199938D02*
X0136232Y0195234D01*
X0120853Y0195234D02*
X0120853Y0199938D01*
X0178306Y0079839D02*
X0180126Y0079839D01*
X0180733Y0079232D01*
X0180733Y0078019D01*
X0180126Y0077412D01*
X0178306Y0077412D01*
X0178306Y0076198D02*
X0178306Y0079839D01*
X0179520Y0077412D02*
X0180733Y0076198D01*
X0181932Y0076198D02*
X0183145Y0076198D01*
X0182538Y0076198D02*
X0182538Y0078625D01*
X0181932Y0078625D01*
X0182538Y0079839D02*
X0182538Y0080445D01*
X0184955Y0078625D02*
X0184348Y0078019D01*
X0184348Y0076805D01*
X0184955Y0076198D01*
X0186775Y0076198D01*
X0187973Y0076198D02*
X0187973Y0079839D01*
X0186775Y0078625D02*
X0184955Y0078625D01*
X0187973Y0077412D02*
X0189793Y0078625D01*
X0190994Y0078625D02*
X0190994Y0076805D01*
X0191601Y0076198D01*
X0193421Y0076198D01*
X0193421Y0075592D02*
X0192814Y0074985D01*
X0192208Y0074985D01*
X0193421Y0075592D02*
X0193421Y0078625D01*
X0189793Y0076198D02*
X0187973Y0077412D01*
X0187983Y0071965D02*
X0185557Y0071965D01*
X0185557Y0068324D01*
X0187983Y0068324D01*
X0186770Y0070145D02*
X0185557Y0070145D01*
X0184358Y0069538D02*
X0184358Y0068931D01*
X0183752Y0068324D01*
X0182538Y0068324D01*
X0181932Y0068931D01*
X0180733Y0068324D02*
X0178306Y0068324D01*
X0178306Y0071965D01*
X0180733Y0071965D01*
X0181932Y0071358D02*
X0181932Y0070751D01*
X0182538Y0070145D01*
X0183752Y0070145D01*
X0184358Y0069538D01*
X0184358Y0071358D02*
X0183752Y0071965D01*
X0182538Y0071965D01*
X0181932Y0071358D01*
X0179520Y0070145D02*
X0178306Y0070145D01*
X0192807Y0071358D02*
X0193414Y0071965D01*
X0194627Y0071965D01*
X0195234Y0071358D01*
X0195234Y0070751D01*
X0194627Y0070145D01*
X0195234Y0069538D01*
X0195234Y0068931D01*
X0194627Y0068324D01*
X0193414Y0068324D01*
X0192807Y0068931D01*
X0194020Y0070145D02*
X0194627Y0070145D01*
X0196432Y0071358D02*
X0197039Y0071965D01*
X0198252Y0071965D01*
X0198859Y0071358D01*
X0198859Y0070751D01*
X0196432Y0068324D01*
X0198859Y0068324D01*
X0200057Y0068931D02*
X0200664Y0068324D01*
X0201877Y0068324D01*
X0202484Y0068931D01*
X0202484Y0069538D01*
X0201877Y0070145D01*
X0201271Y0070145D01*
X0201877Y0070145D02*
X0202484Y0070751D01*
X0202484Y0071358D01*
X0201877Y0071965D01*
X0200664Y0071965D01*
X0200057Y0071358D01*
X0200671Y0076198D02*
X0198245Y0076198D01*
X0198245Y0076805D01*
X0200671Y0079232D01*
X0200671Y0079839D01*
X0198245Y0079839D01*
X0201870Y0079839D02*
X0201870Y0076198D01*
X0201870Y0078019D02*
X0202476Y0078625D01*
X0203690Y0078625D01*
X0204297Y0078019D01*
X0204297Y0076198D01*
X0205495Y0076805D02*
X0206102Y0077412D01*
X0207922Y0077412D01*
X0207922Y0078019D02*
X0207922Y0076198D01*
X0206102Y0076198D01*
X0205495Y0076805D01*
X0206102Y0078625D02*
X0207315Y0078625D01*
X0207922Y0078019D01*
X0209120Y0078625D02*
X0210940Y0078625D01*
X0211547Y0078019D01*
X0211547Y0076198D01*
X0212745Y0076805D02*
X0212745Y0078019D01*
X0213352Y0078625D01*
X0215172Y0078625D01*
X0215172Y0075592D01*
X0214565Y0074985D01*
X0213959Y0074985D01*
X0213352Y0076198D02*
X0215172Y0076198D01*
X0213352Y0076198D02*
X0212745Y0076805D01*
X0209120Y0076198D02*
X0209120Y0078625D01*
D11*
X0030519Y0038647D02*
X0030519Y0231560D01*
X0223432Y0231560D01*
X0223432Y0038647D01*
X0030519Y0038647D01*
D12*
X0114278Y0111895D02*
X0114278Y0138096D01*
X0115676Y0139493D01*
X0141877Y0139493D01*
X0141877Y0111895D01*
X0114278Y0111895D01*
X0115864Y0136494D02*
X0115866Y0136569D01*
X0115872Y0136643D01*
X0115882Y0136717D01*
X0115895Y0136790D01*
X0115913Y0136863D01*
X0115934Y0136934D01*
X0115959Y0137005D01*
X0115988Y0137074D01*
X0116021Y0137141D01*
X0116057Y0137206D01*
X0116096Y0137270D01*
X0116138Y0137331D01*
X0116184Y0137390D01*
X0116233Y0137447D01*
X0116285Y0137500D01*
X0116339Y0137551D01*
X0116396Y0137600D01*
X0116456Y0137644D01*
X0116518Y0137686D01*
X0116582Y0137725D01*
X0116648Y0137760D01*
X0116715Y0137791D01*
X0116785Y0137819D01*
X0116855Y0137843D01*
X0116927Y0137864D01*
X0117000Y0137880D01*
X0117073Y0137893D01*
X0117148Y0137902D01*
X0117222Y0137907D01*
X0117297Y0137908D01*
X0117371Y0137905D01*
X0117446Y0137898D01*
X0117519Y0137887D01*
X0117593Y0137873D01*
X0117665Y0137854D01*
X0117736Y0137832D01*
X0117806Y0137806D01*
X0117875Y0137776D01*
X0117941Y0137743D01*
X0118006Y0137706D01*
X0118069Y0137666D01*
X0118130Y0137622D01*
X0118188Y0137576D01*
X0118244Y0137526D01*
X0118297Y0137474D01*
X0118348Y0137419D01*
X0118395Y0137361D01*
X0118439Y0137301D01*
X0118480Y0137238D01*
X0118518Y0137174D01*
X0118552Y0137108D01*
X0118583Y0137039D01*
X0118610Y0136970D01*
X0118633Y0136899D01*
X0118652Y0136827D01*
X0118668Y0136754D01*
X0118680Y0136680D01*
X0118688Y0136606D01*
X0118692Y0136531D01*
X0118692Y0136457D01*
X0118688Y0136382D01*
X0118680Y0136308D01*
X0118668Y0136234D01*
X0118652Y0136161D01*
X0118633Y0136089D01*
X0118610Y0136018D01*
X0118583Y0135949D01*
X0118552Y0135880D01*
X0118518Y0135814D01*
X0118480Y0135750D01*
X0118439Y0135687D01*
X0118395Y0135627D01*
X0118348Y0135569D01*
X0118297Y0135514D01*
X0118244Y0135462D01*
X0118188Y0135412D01*
X0118130Y0135366D01*
X0118069Y0135322D01*
X0118006Y0135282D01*
X0117941Y0135245D01*
X0117875Y0135212D01*
X0117806Y0135182D01*
X0117736Y0135156D01*
X0117665Y0135134D01*
X0117593Y0135115D01*
X0117519Y0135101D01*
X0117446Y0135090D01*
X0117371Y0135083D01*
X0117297Y0135080D01*
X0117222Y0135081D01*
X0117148Y0135086D01*
X0117073Y0135095D01*
X0117000Y0135108D01*
X0116927Y0135124D01*
X0116855Y0135145D01*
X0116785Y0135169D01*
X0116715Y0135197D01*
X0116648Y0135228D01*
X0116582Y0135263D01*
X0116518Y0135302D01*
X0116456Y0135344D01*
X0116396Y0135388D01*
X0116339Y0135437D01*
X0116285Y0135488D01*
X0116233Y0135541D01*
X0116184Y0135598D01*
X0116138Y0135657D01*
X0116096Y0135718D01*
X0116057Y0135782D01*
X0116021Y0135847D01*
X0115988Y0135914D01*
X0115959Y0135983D01*
X0115934Y0136054D01*
X0115913Y0136125D01*
X0115895Y0136198D01*
X0115882Y0136271D01*
X0115872Y0136345D01*
X0115866Y0136419D01*
X0115864Y0136494D01*
X0087286Y0183195D02*
X0087286Y0185595D01*
X0085586Y0185595D01*
X0084486Y0185595D01*
X0082886Y0185595D01*
X0082886Y0183195D01*
X0084486Y0183195D01*
X0085686Y0183195D01*
X0087286Y0183195D01*
X0085686Y0183195D02*
X0085586Y0185595D01*
X0084486Y0185595D02*
X0084486Y0183195D01*
X0084360Y0194784D02*
X0081560Y0194784D01*
X0078560Y0194784D01*
X0078560Y0200384D01*
X0081560Y0200384D01*
X0087360Y0200384D01*
X0087360Y0194784D01*
X0084360Y0194784D01*
X0084360Y0200384D01*
X0087360Y0200484D01*
X0087360Y0200384D01*
X0081560Y0200384D02*
X0081560Y0194784D01*
X0067295Y0206806D02*
X0061695Y0206806D01*
X0061695Y0209806D01*
X0061695Y0215606D01*
X0067295Y0215606D01*
X0067295Y0212606D01*
X0067295Y0209806D01*
X0067295Y0206806D01*
X0067295Y0209806D02*
X0061695Y0209806D01*
X0061695Y0212606D02*
X0061595Y0215606D01*
X0061695Y0215606D01*
X0061695Y0212606D02*
X0067295Y0212606D01*
X0073756Y0222500D02*
X0073756Y0228100D01*
X0076756Y0228100D01*
X0082556Y0228100D01*
X0082556Y0222500D01*
X0079556Y0222500D01*
X0076756Y0222500D01*
X0073756Y0222500D01*
X0076756Y0222500D02*
X0076756Y0228100D01*
X0079556Y0228100D02*
X0082556Y0228200D01*
X0082556Y0228100D01*
X0079556Y0228100D02*
X0079556Y0222500D01*
X0093867Y0220298D02*
X0106067Y0220298D01*
X0106067Y0208098D01*
X0093867Y0208098D01*
X0093867Y0220298D01*
X0063226Y0193534D02*
X0063226Y0187934D01*
X0060226Y0187934D01*
X0054426Y0187934D01*
X0054426Y0193534D01*
X0057426Y0193534D01*
X0060226Y0193534D01*
X0063226Y0193534D01*
X0060226Y0193534D02*
X0060226Y0187934D01*
X0057426Y0187934D02*
X0054426Y0187834D01*
X0054426Y0187934D01*
X0057426Y0187934D02*
X0057426Y0193534D01*
X0055593Y0181658D02*
X0053893Y0181658D01*
X0052793Y0181658D01*
X0051193Y0181658D01*
X0051193Y0179258D01*
X0052793Y0179258D01*
X0053993Y0179258D01*
X0055593Y0179258D01*
X0055593Y0181658D01*
X0053893Y0181658D02*
X0053993Y0179258D01*
X0052793Y0179258D02*
X0052793Y0181658D01*
D13*
X0052605Y0165773D02*
X0032920Y0165773D01*
X0032920Y0135852D01*
X0052605Y0135852D01*
X0052605Y0165773D01*
X0047330Y0206993D02*
X0037330Y0206993D01*
X0037330Y0226993D01*
X0047330Y0226993D01*
X0047330Y0206993D01*
X0097330Y0167269D02*
X0097330Y0160970D01*
X0109534Y0160970D01*
X0109534Y0167269D01*
X0097330Y0167269D01*
X0111897Y0176718D02*
X0111897Y0183017D01*
X0124101Y0183017D01*
X0124101Y0176718D01*
X0111897Y0176718D01*
X0129692Y0202426D02*
X0129692Y0226048D01*
X0153314Y0226048D01*
X0153314Y0202426D01*
X0129692Y0202426D01*
X0146149Y0171206D02*
X0158353Y0171206D01*
X0158353Y0164907D01*
X0146149Y0164907D01*
X0146149Y0171206D01*
X0163117Y0160025D02*
X0169416Y0160025D01*
X0169416Y0147820D01*
X0163117Y0147820D01*
X0163117Y0160025D01*
X0175086Y0151127D02*
X0181385Y0151127D01*
X0181385Y0138923D01*
X0175086Y0138923D01*
X0175086Y0151127D01*
X0177448Y0124749D02*
X0171149Y0124749D01*
X0171149Y0112545D01*
X0177448Y0112545D01*
X0177448Y0124749D01*
X0185519Y0110576D02*
X0191818Y0110576D01*
X0191818Y0098371D01*
X0185519Y0098371D01*
X0185519Y0110576D01*
X0177448Y0106245D02*
X0177448Y0094041D01*
X0171149Y0094041D01*
X0171149Y0106245D01*
X0177448Y0106245D01*
X0169731Y0081797D02*
X0169731Y0043608D01*
X0070125Y0043608D01*
X0070125Y0081797D01*
X0169731Y0081797D01*
X0212763Y0066678D02*
X0212763Y0206678D01*
X0222763Y0206678D01*
X0222763Y0066678D01*
X0212763Y0066678D01*
X0091149Y0104592D02*
X0065952Y0104592D01*
X0065952Y0117190D01*
X0091149Y0117190D01*
X0091149Y0104592D01*
X0169456Y0202151D02*
X0169456Y0225773D01*
X0193078Y0225773D01*
X0193078Y0202151D01*
X0169456Y0202151D01*
D14*
X0173593Y0200065D02*
X0175895Y0200065D01*
X0176662Y0199298D01*
X0176662Y0197763D01*
X0175895Y0196996D01*
X0173593Y0196996D01*
X0173593Y0195461D02*
X0173593Y0200065D01*
X0178197Y0200065D02*
X0180498Y0200065D01*
X0181266Y0199298D01*
X0181266Y0198530D01*
X0180498Y0197763D01*
X0178197Y0197763D01*
X0180498Y0197763D02*
X0181266Y0196996D01*
X0181266Y0196228D01*
X0180498Y0195461D01*
X0178197Y0195461D01*
X0178197Y0200065D01*
X0182800Y0199298D02*
X0183568Y0200065D01*
X0185102Y0200065D01*
X0185870Y0199298D01*
X0185870Y0198530D01*
X0182800Y0195461D01*
X0185870Y0195461D01*
X0155837Y0176542D02*
X0155837Y0175774D01*
X0155070Y0175007D01*
X0155837Y0174240D01*
X0155837Y0173473D01*
X0155070Y0172705D01*
X0153536Y0172705D01*
X0152768Y0173473D01*
X0151234Y0172705D02*
X0149699Y0174240D01*
X0150466Y0174240D02*
X0148164Y0174240D01*
X0148164Y0172705D02*
X0148164Y0177309D01*
X0150466Y0177309D01*
X0151234Y0176542D01*
X0151234Y0175007D01*
X0150466Y0174240D01*
X0152768Y0176542D02*
X0153536Y0177309D01*
X0155070Y0177309D01*
X0155837Y0176542D01*
X0155070Y0175007D02*
X0154303Y0175007D01*
X0159316Y0157509D02*
X0159316Y0154440D01*
X0157014Y0156742D01*
X0161618Y0156742D01*
X0161618Y0152905D02*
X0160083Y0151371D01*
X0160083Y0152138D02*
X0160083Y0149836D01*
X0161618Y0149836D02*
X0157014Y0149836D01*
X0157014Y0152138D01*
X0157781Y0152905D01*
X0159316Y0152905D01*
X0160083Y0152138D01*
X0182880Y0147977D02*
X0182880Y0144908D01*
X0185182Y0144908D01*
X0184415Y0146442D01*
X0184415Y0147209D01*
X0185182Y0147977D01*
X0186717Y0147977D01*
X0187484Y0147209D01*
X0187484Y0145675D01*
X0186717Y0144908D01*
X0187484Y0143373D02*
X0185949Y0141838D01*
X0185949Y0142606D02*
X0185949Y0140304D01*
X0187484Y0140304D02*
X0182880Y0140304D01*
X0182880Y0142606D01*
X0183647Y0143373D01*
X0185182Y0143373D01*
X0185949Y0142606D01*
X0182780Y0121599D02*
X0182012Y0121599D01*
X0181245Y0120832D01*
X0181245Y0118530D01*
X0182780Y0118530D01*
X0183547Y0119297D01*
X0183547Y0120832D01*
X0182780Y0121599D01*
X0181245Y0118530D02*
X0179710Y0120064D01*
X0178943Y0121599D01*
X0179710Y0116995D02*
X0181245Y0116995D01*
X0182012Y0116228D01*
X0182012Y0113926D01*
X0182012Y0115460D02*
X0183547Y0116995D01*
X0179710Y0116995D02*
X0178943Y0116228D01*
X0178943Y0113926D01*
X0183547Y0113926D01*
X0193313Y0106658D02*
X0193313Y0105124D01*
X0194080Y0104356D01*
X0194848Y0104356D01*
X0195615Y0105124D01*
X0195615Y0106658D01*
X0196382Y0107426D01*
X0197150Y0107426D01*
X0197917Y0106658D01*
X0197917Y0105124D01*
X0197150Y0104356D01*
X0196382Y0104356D01*
X0195615Y0105124D01*
X0195615Y0106658D02*
X0194848Y0107426D01*
X0194080Y0107426D01*
X0193313Y0106658D01*
X0194080Y0102822D02*
X0195615Y0102822D01*
X0196382Y0102054D01*
X0196382Y0099752D01*
X0197917Y0099752D02*
X0193313Y0099752D01*
X0193313Y0102054D01*
X0194080Y0102822D01*
X0196382Y0101287D02*
X0197917Y0102822D01*
X0183547Y0100026D02*
X0182780Y0100026D01*
X0179710Y0103095D01*
X0178943Y0103095D01*
X0178943Y0100026D01*
X0179710Y0098491D02*
X0178943Y0097724D01*
X0178943Y0095422D01*
X0183547Y0095422D01*
X0182012Y0095422D02*
X0182012Y0097724D01*
X0181245Y0098491D01*
X0179710Y0098491D01*
X0182012Y0096956D02*
X0183547Y0098491D01*
X0227648Y0127449D02*
X0228415Y0126682D01*
X0229950Y0126682D01*
X0230717Y0127449D01*
X0230717Y0131285D01*
X0232252Y0130518D02*
X0232252Y0129751D01*
X0233019Y0128984D01*
X0234554Y0128984D01*
X0235321Y0128216D01*
X0235321Y0127449D01*
X0234554Y0126682D01*
X0233019Y0126682D01*
X0232252Y0127449D01*
X0233786Y0125914D02*
X0233786Y0132053D01*
X0233019Y0131285D02*
X0234554Y0131285D01*
X0235321Y0130518D01*
X0236856Y0129751D02*
X0238390Y0131285D01*
X0238390Y0126682D01*
X0236856Y0126682D02*
X0239925Y0126682D01*
X0233019Y0131285D02*
X0232252Y0130518D01*
X0227648Y0131285D02*
X0227648Y0127449D01*
X0146106Y0195737D02*
X0143037Y0195737D01*
X0144571Y0195737D02*
X0144571Y0200341D01*
X0143037Y0198806D01*
X0141502Y0198806D02*
X0141502Y0199573D01*
X0140735Y0200341D01*
X0138433Y0200341D01*
X0138433Y0195737D01*
X0140735Y0195737D01*
X0141502Y0196504D01*
X0141502Y0197271D01*
X0140735Y0198039D01*
X0138433Y0198039D01*
X0136898Y0198039D02*
X0136131Y0197271D01*
X0133829Y0197271D01*
X0133829Y0195737D02*
X0133829Y0200341D01*
X0136131Y0200341D01*
X0136898Y0199573D01*
X0136898Y0198039D01*
X0140735Y0198039D02*
X0141502Y0198806D01*
X0121586Y0188353D02*
X0120818Y0189120D01*
X0119284Y0189120D01*
X0118516Y0188353D01*
X0116982Y0188353D02*
X0116214Y0189120D01*
X0113912Y0189120D01*
X0113912Y0184516D01*
X0113912Y0186051D02*
X0116214Y0186051D01*
X0116982Y0186818D01*
X0116982Y0188353D01*
X0115447Y0186051D02*
X0116982Y0184516D01*
X0118516Y0184516D02*
X0121586Y0187585D01*
X0121586Y0188353D01*
X0121586Y0184516D02*
X0118516Y0184516D01*
X0105484Y0173372D02*
X0103949Y0171837D01*
X0102415Y0172605D02*
X0102415Y0171070D01*
X0101647Y0170303D01*
X0099345Y0170303D01*
X0099345Y0168768D02*
X0099345Y0173372D01*
X0101647Y0173372D01*
X0102415Y0172605D01*
X0100880Y0170303D02*
X0102415Y0168768D01*
X0103949Y0168768D02*
X0107019Y0168768D01*
X0105484Y0168768D02*
X0105484Y0173372D01*
X0097667Y0217598D02*
X0097665Y0217665D01*
X0097659Y0217732D01*
X0097650Y0217798D01*
X0097636Y0217863D01*
X0097619Y0217928D01*
X0097598Y0217991D01*
X0097573Y0218053D01*
X0097545Y0218114D01*
X0097513Y0218173D01*
X0097478Y0218230D01*
X0097439Y0218285D01*
X0097398Y0218337D01*
X0097353Y0218387D01*
X0097306Y0218434D01*
X0097256Y0218479D01*
X0097204Y0218520D01*
X0097149Y0218559D01*
X0097092Y0218594D01*
X0097033Y0218626D01*
X0096972Y0218654D01*
X0096910Y0218679D01*
X0096847Y0218700D01*
X0096782Y0218717D01*
X0096717Y0218731D01*
X0096651Y0218740D01*
X0096584Y0218746D01*
X0096517Y0218748D01*
X0096450Y0218746D01*
X0096383Y0218740D01*
X0096317Y0218731D01*
X0096252Y0218717D01*
X0096187Y0218700D01*
X0096124Y0218679D01*
X0096062Y0218654D01*
X0096001Y0218626D01*
X0095942Y0218594D01*
X0095885Y0218559D01*
X0095830Y0218520D01*
X0095778Y0218479D01*
X0095728Y0218434D01*
X0095681Y0218387D01*
X0095636Y0218337D01*
X0095595Y0218285D01*
X0095556Y0218230D01*
X0095521Y0218173D01*
X0095489Y0218114D01*
X0095461Y0218053D01*
X0095436Y0217991D01*
X0095415Y0217928D01*
X0095398Y0217863D01*
X0095384Y0217798D01*
X0095375Y0217732D01*
X0095369Y0217665D01*
X0095367Y0217598D01*
X0095369Y0217531D01*
X0095375Y0217464D01*
X0095384Y0217398D01*
X0095398Y0217333D01*
X0095415Y0217268D01*
X0095436Y0217205D01*
X0095461Y0217143D01*
X0095489Y0217082D01*
X0095521Y0217023D01*
X0095556Y0216966D01*
X0095595Y0216911D01*
X0095636Y0216859D01*
X0095681Y0216809D01*
X0095728Y0216762D01*
X0095778Y0216717D01*
X0095830Y0216676D01*
X0095885Y0216637D01*
X0095942Y0216602D01*
X0096001Y0216570D01*
X0096062Y0216542D01*
X0096124Y0216517D01*
X0096187Y0216496D01*
X0096252Y0216479D01*
X0096317Y0216465D01*
X0096383Y0216456D01*
X0096450Y0216450D01*
X0096517Y0216448D01*
X0096584Y0216450D01*
X0096651Y0216456D01*
X0096717Y0216465D01*
X0096782Y0216479D01*
X0096847Y0216496D01*
X0096910Y0216517D01*
X0096972Y0216542D01*
X0097033Y0216570D01*
X0097092Y0216602D01*
X0097149Y0216637D01*
X0097204Y0216676D01*
X0097256Y0216717D01*
X0097306Y0216762D01*
X0097353Y0216809D01*
X0097398Y0216859D01*
X0097439Y0216911D01*
X0097478Y0216966D01*
X0097513Y0217023D01*
X0097545Y0217082D01*
X0097573Y0217143D01*
X0097598Y0217205D01*
X0097619Y0217268D01*
X0097636Y0217333D01*
X0097650Y0217398D01*
X0097659Y0217464D01*
X0097665Y0217531D01*
X0097667Y0217598D01*
X0092213Y0217154D02*
X0089144Y0217154D01*
X0090678Y0217154D02*
X0090678Y0221758D01*
X0089144Y0220223D01*
X0038664Y0222119D02*
X0038664Y0222886D01*
X0037897Y0223654D01*
X0034060Y0223654D01*
X0032526Y0225188D02*
X0032526Y0228257D01*
X0032526Y0226723D02*
X0037130Y0226723D01*
X0037130Y0223654D02*
X0037130Y0221352D01*
X0036362Y0220584D01*
X0034060Y0220584D01*
X0034060Y0219050D02*
X0034060Y0218282D01*
X0035595Y0216748D01*
X0037130Y0216748D02*
X0034060Y0216748D01*
X0034828Y0215213D02*
X0035595Y0215213D01*
X0035595Y0212144D01*
X0036362Y0212144D02*
X0034828Y0212144D01*
X0034060Y0212911D01*
X0034060Y0214446D01*
X0034828Y0215213D01*
X0037130Y0214446D02*
X0037130Y0212911D01*
X0036362Y0212144D01*
X0037130Y0210609D02*
X0036362Y0209842D01*
X0033293Y0209842D01*
X0034060Y0210609D02*
X0034060Y0209074D01*
X0034060Y0207540D02*
X0034060Y0206005D01*
X0033293Y0206772D02*
X0036362Y0206772D01*
X0037130Y0207540D01*
X0037130Y0204471D02*
X0034828Y0204471D01*
X0034060Y0203703D01*
X0034060Y0202169D01*
X0035595Y0202169D02*
X0035595Y0204471D01*
X0037130Y0204471D02*
X0037130Y0202169D01*
X0036362Y0201401D01*
X0035595Y0202169D01*
X0036362Y0199867D02*
X0034828Y0199867D01*
X0034060Y0199099D01*
X0034060Y0196797D01*
X0032526Y0196797D02*
X0037130Y0196797D01*
X0037130Y0199099D01*
X0036362Y0199867D01*
X0034828Y0195263D02*
X0037130Y0192193D01*
X0034828Y0195263D02*
X0032526Y0192193D01*
X0027445Y0159478D02*
X0027445Y0156408D01*
X0024375Y0159478D01*
X0023608Y0159478D01*
X0022841Y0158710D01*
X0022841Y0157176D01*
X0023608Y0156408D01*
X0023608Y0154874D02*
X0022841Y0154106D01*
X0022841Y0152572D01*
X0023608Y0151804D01*
X0024375Y0151804D01*
X0025143Y0152572D01*
X0025143Y0154106D01*
X0025910Y0154874D01*
X0026677Y0154874D01*
X0027445Y0154106D01*
X0027445Y0152572D01*
X0026677Y0151804D01*
X0026677Y0150270D02*
X0022841Y0150270D01*
X0022841Y0147200D02*
X0026677Y0147200D01*
X0027445Y0147968D01*
X0027445Y0149502D01*
X0026677Y0150270D01*
X0028212Y0153339D02*
X0022073Y0153339D01*
X0054513Y0114084D02*
X0056048Y0114084D01*
X0056815Y0113316D01*
X0056815Y0111015D01*
X0056815Y0112549D02*
X0058350Y0114084D01*
X0060833Y0114084D02*
X0061600Y0112549D01*
X0063135Y0111015D01*
X0063135Y0113317D01*
X0063902Y0114084D01*
X0064669Y0114084D01*
X0065437Y0113317D01*
X0065437Y0111782D01*
X0064669Y0111015D01*
X0063135Y0111015D01*
X0063902Y0109480D02*
X0063135Y0108713D01*
X0063135Y0107178D01*
X0062367Y0106411D01*
X0061600Y0106411D01*
X0060833Y0107178D01*
X0060833Y0108713D01*
X0061600Y0109480D01*
X0060065Y0107945D02*
X0066204Y0107945D01*
X0065437Y0107178D02*
X0065437Y0108713D01*
X0064669Y0109480D01*
X0063902Y0109480D01*
X0065437Y0107178D02*
X0064669Y0106411D01*
X0064669Y0104876D02*
X0060833Y0104876D01*
X0058350Y0103341D02*
X0053746Y0103341D01*
X0053746Y0101807D02*
X0053746Y0104876D01*
X0054513Y0106411D02*
X0057583Y0106411D01*
X0058350Y0107178D01*
X0058350Y0108713D01*
X0057583Y0109480D01*
X0054513Y0109480D01*
X0053746Y0108713D01*
X0053746Y0107178D01*
X0054513Y0106411D01*
X0053746Y0111015D02*
X0053746Y0113316D01*
X0054513Y0114084D01*
X0053746Y0111015D02*
X0058350Y0111015D01*
X0064669Y0104876D02*
X0065437Y0104109D01*
X0065437Y0102574D01*
X0064669Y0101807D01*
X0060833Y0101807D01*
X0058350Y0099505D02*
X0058350Y0097970D01*
X0057583Y0097203D01*
X0056048Y0097970D02*
X0056048Y0099505D01*
X0056815Y0100272D01*
X0057583Y0100272D01*
X0058350Y0099505D01*
X0056048Y0097970D02*
X0055281Y0097203D01*
X0054513Y0097203D01*
X0053746Y0097970D01*
X0053746Y0099505D01*
X0054513Y0100272D01*
X0053746Y0095668D02*
X0053746Y0094133D01*
X0053746Y0094901D02*
X0058350Y0094901D01*
X0058350Y0095668D02*
X0058350Y0094133D01*
X0057583Y0092599D02*
X0058350Y0091832D01*
X0058350Y0090297D01*
X0057583Y0089530D01*
X0056048Y0090297D02*
X0055281Y0089530D01*
X0054513Y0089530D01*
X0053746Y0090297D01*
X0053746Y0091832D01*
X0054513Y0092599D01*
X0056048Y0091832D02*
X0056815Y0092599D01*
X0057583Y0092599D01*
X0056048Y0091832D02*
X0056048Y0090297D01*
X0053746Y0087995D02*
X0053746Y0084926D01*
X0058350Y0084926D01*
X0058350Y0087995D01*
X0056048Y0086460D02*
X0056048Y0084926D01*
X0056048Y0083391D02*
X0056815Y0082624D01*
X0056815Y0080322D01*
X0056815Y0081856D02*
X0058350Y0083391D01*
X0056048Y0083391D02*
X0054513Y0083391D01*
X0053746Y0082624D01*
X0053746Y0080322D01*
X0058350Y0080322D01*
X0059117Y0078787D02*
X0059117Y0075718D01*
X0058350Y0074183D02*
X0053746Y0074183D01*
X0053746Y0071114D02*
X0058350Y0074183D01*
X0058350Y0071114D02*
X0053746Y0071114D01*
X0053746Y0069579D02*
X0053746Y0068045D01*
X0053746Y0068812D02*
X0058350Y0068812D01*
X0058350Y0068045D02*
X0058350Y0069579D01*
X0056048Y0066510D02*
X0056815Y0065743D01*
X0056815Y0063441D01*
X0058350Y0063441D02*
X0053746Y0063441D01*
X0053746Y0065743D01*
X0054513Y0066510D01*
X0056048Y0066510D01*
X0056048Y0061906D02*
X0056048Y0058837D01*
X0053746Y0061139D01*
X0058350Y0061139D01*
X0047465Y0073460D02*
X0048232Y0074228D01*
X0048232Y0075762D01*
X0047465Y0076530D01*
X0043628Y0076530D01*
X0044395Y0078064D02*
X0043628Y0078832D01*
X0043628Y0080366D01*
X0044395Y0081134D01*
X0045930Y0080366D02*
X0045930Y0078832D01*
X0045163Y0078064D01*
X0044395Y0078064D01*
X0042861Y0079599D02*
X0048999Y0079599D01*
X0048232Y0080366D02*
X0047465Y0081134D01*
X0046697Y0081134D01*
X0045930Y0080366D01*
X0048232Y0080366D02*
X0048232Y0078832D01*
X0047465Y0078064D01*
X0047465Y0073460D02*
X0043628Y0073460D01*
X0045930Y0082668D02*
X0045930Y0085737D01*
X0048232Y0084970D02*
X0043628Y0084970D01*
X0045930Y0082668D01*
X0107215Y0037506D02*
X0107215Y0033669D01*
X0107982Y0032902D01*
X0109517Y0032902D01*
X0110284Y0033669D01*
X0110284Y0037506D01*
X0111819Y0036739D02*
X0112586Y0037506D01*
X0114121Y0037506D01*
X0114888Y0036739D01*
X0116423Y0036739D02*
X0117190Y0037506D01*
X0118724Y0037506D01*
X0119492Y0036739D01*
X0119492Y0035971D01*
X0118724Y0035204D01*
X0119492Y0034437D01*
X0119492Y0033669D01*
X0118724Y0032902D01*
X0117190Y0032902D01*
X0116423Y0033669D01*
X0114888Y0033669D02*
X0114888Y0034437D01*
X0114121Y0035204D01*
X0112586Y0035204D01*
X0111819Y0035971D01*
X0111819Y0036739D01*
X0113353Y0038273D02*
X0113353Y0032135D01*
X0112586Y0032902D02*
X0114121Y0032902D01*
X0114888Y0033669D01*
X0112586Y0032902D02*
X0111819Y0033669D01*
X0117957Y0035204D02*
X0118724Y0035204D01*
X0176821Y0036780D02*
X0177588Y0036012D01*
X0179123Y0036012D01*
X0179890Y0036780D01*
X0179890Y0040616D01*
X0181425Y0039849D02*
X0182192Y0040616D01*
X0183727Y0040616D01*
X0184494Y0039849D01*
X0183727Y0038314D02*
X0182192Y0038314D01*
X0181425Y0039082D01*
X0181425Y0039849D01*
X0182960Y0041384D02*
X0182960Y0035245D01*
X0183727Y0036012D02*
X0184494Y0036780D01*
X0184494Y0037547D01*
X0183727Y0038314D01*
X0183727Y0036012D02*
X0182192Y0036012D01*
X0181425Y0036780D01*
X0176821Y0036780D02*
X0176821Y0040616D01*
X0186029Y0040616D02*
X0186029Y0038314D01*
X0187563Y0039082D01*
X0188331Y0039082D01*
X0189098Y0038314D01*
X0189098Y0036780D01*
X0188331Y0036012D01*
X0186796Y0036012D01*
X0186029Y0036780D01*
X0186029Y0040616D02*
X0189098Y0040616D01*
X0036362Y0229792D02*
X0034828Y0229792D01*
X0034060Y0230559D01*
X0034060Y0232094D01*
X0034828Y0232861D01*
X0035595Y0232861D01*
X0035595Y0229792D01*
X0036362Y0229792D02*
X0037130Y0230559D01*
X0037130Y0232094D01*
X0037130Y0234396D02*
X0034060Y0234396D01*
X0034060Y0235931D02*
X0034060Y0236698D01*
X0034060Y0235931D02*
X0035595Y0234396D01*
X0037130Y0238233D02*
X0034060Y0238233D01*
X0034060Y0239000D01*
X0034828Y0239767D01*
X0034060Y0240535D01*
X0034828Y0241302D01*
X0037130Y0241302D01*
X0037130Y0239767D02*
X0034828Y0239767D01*
D15*
X0051523Y0087072D02*
X0066523Y0087072D01*
X0066523Y0047072D01*
X0051523Y0047072D01*
X0051523Y0087072D01*
X0054723Y0067072D02*
X0054725Y0067203D01*
X0054731Y0067333D01*
X0054741Y0067463D01*
X0054755Y0067593D01*
X0054772Y0067722D01*
X0054794Y0067851D01*
X0054820Y0067979D01*
X0054849Y0068106D01*
X0054882Y0068232D01*
X0054920Y0068357D01*
X0054960Y0068481D01*
X0055005Y0068604D01*
X0055053Y0068725D01*
X0055105Y0068845D01*
X0055161Y0068963D01*
X0055220Y0069079D01*
X0055283Y0069194D01*
X0055349Y0069306D01*
X0055418Y0069417D01*
X0055491Y0069525D01*
X0055567Y0069631D01*
X0055647Y0069735D01*
X0055729Y0069836D01*
X0055814Y0069935D01*
X0055903Y0070031D01*
X0055994Y0070124D01*
X0056088Y0070215D01*
X0056185Y0070302D01*
X0056284Y0070387D01*
X0056386Y0070468D01*
X0056490Y0070547D01*
X0056597Y0070622D01*
X0056706Y0070694D01*
X0056817Y0070763D01*
X0056930Y0070828D01*
X0057045Y0070890D01*
X0057162Y0070948D01*
X0057280Y0071003D01*
X0057400Y0071054D01*
X0057522Y0071101D01*
X0057645Y0071145D01*
X0057769Y0071185D01*
X0057894Y0071221D01*
X0058021Y0071254D01*
X0058148Y0071282D01*
X0058276Y0071307D01*
X0058405Y0071327D01*
X0058535Y0071344D01*
X0058664Y0071357D01*
X0058795Y0071366D01*
X0058925Y0071371D01*
X0059056Y0071372D01*
X0059186Y0071369D01*
X0059316Y0071362D01*
X0059447Y0071351D01*
X0059576Y0071336D01*
X0059705Y0071318D01*
X0059834Y0071295D01*
X0059962Y0071268D01*
X0060089Y0071238D01*
X0060215Y0071204D01*
X0060339Y0071166D01*
X0060463Y0071124D01*
X0060585Y0071078D01*
X0060706Y0071029D01*
X0060825Y0070976D01*
X0060943Y0070919D01*
X0061059Y0070859D01*
X0061173Y0070796D01*
X0061285Y0070729D01*
X0061395Y0070659D01*
X0061503Y0070585D01*
X0061608Y0070508D01*
X0061711Y0070428D01*
X0061812Y0070345D01*
X0061910Y0070259D01*
X0062005Y0070170D01*
X0062098Y0070078D01*
X0062188Y0069983D01*
X0062275Y0069886D01*
X0062359Y0069786D01*
X0062439Y0069683D01*
X0062517Y0069578D01*
X0062592Y0069471D01*
X0062663Y0069362D01*
X0062730Y0069250D01*
X0062795Y0069137D01*
X0062856Y0069021D01*
X0062913Y0068904D01*
X0062967Y0068785D01*
X0063017Y0068665D01*
X0063064Y0068543D01*
X0063106Y0068419D01*
X0063145Y0068295D01*
X0063181Y0068169D01*
X0063212Y0068042D01*
X0063240Y0067915D01*
X0063263Y0067787D01*
X0063283Y0067658D01*
X0063299Y0067528D01*
X0063311Y0067398D01*
X0063319Y0067268D01*
X0063323Y0067137D01*
X0063323Y0067007D01*
X0063319Y0066876D01*
X0063311Y0066746D01*
X0063299Y0066616D01*
X0063283Y0066486D01*
X0063263Y0066357D01*
X0063240Y0066229D01*
X0063212Y0066102D01*
X0063181Y0065975D01*
X0063145Y0065849D01*
X0063106Y0065725D01*
X0063064Y0065601D01*
X0063017Y0065479D01*
X0062967Y0065359D01*
X0062913Y0065240D01*
X0062856Y0065123D01*
X0062795Y0065007D01*
X0062730Y0064894D01*
X0062663Y0064782D01*
X0062592Y0064673D01*
X0062517Y0064566D01*
X0062439Y0064461D01*
X0062359Y0064358D01*
X0062275Y0064258D01*
X0062188Y0064161D01*
X0062098Y0064066D01*
X0062005Y0063974D01*
X0061910Y0063885D01*
X0061812Y0063799D01*
X0061711Y0063716D01*
X0061608Y0063636D01*
X0061503Y0063559D01*
X0061395Y0063485D01*
X0061285Y0063415D01*
X0061173Y0063348D01*
X0061059Y0063285D01*
X0060943Y0063225D01*
X0060825Y0063168D01*
X0060706Y0063115D01*
X0060585Y0063066D01*
X0060463Y0063020D01*
X0060339Y0062978D01*
X0060215Y0062940D01*
X0060089Y0062906D01*
X0059962Y0062876D01*
X0059834Y0062849D01*
X0059705Y0062826D01*
X0059576Y0062808D01*
X0059447Y0062793D01*
X0059316Y0062782D01*
X0059186Y0062775D01*
X0059056Y0062772D01*
X0058925Y0062773D01*
X0058795Y0062778D01*
X0058664Y0062787D01*
X0058535Y0062800D01*
X0058405Y0062817D01*
X0058276Y0062837D01*
X0058148Y0062862D01*
X0058021Y0062890D01*
X0057894Y0062923D01*
X0057769Y0062959D01*
X0057645Y0062999D01*
X0057522Y0063043D01*
X0057400Y0063090D01*
X0057280Y0063141D01*
X0057162Y0063196D01*
X0057045Y0063254D01*
X0056930Y0063316D01*
X0056817Y0063381D01*
X0056706Y0063450D01*
X0056597Y0063522D01*
X0056490Y0063597D01*
X0056386Y0063676D01*
X0056284Y0063757D01*
X0056185Y0063842D01*
X0056088Y0063929D01*
X0055994Y0064020D01*
X0055903Y0064113D01*
X0055814Y0064209D01*
X0055729Y0064308D01*
X0055647Y0064409D01*
X0055567Y0064513D01*
X0055491Y0064619D01*
X0055418Y0064727D01*
X0055349Y0064838D01*
X0055283Y0064950D01*
X0055220Y0065065D01*
X0055161Y0065181D01*
X0055105Y0065299D01*
X0055053Y0065419D01*
X0055005Y0065540D01*
X0054960Y0065663D01*
X0054920Y0065787D01*
X0054882Y0065912D01*
X0054849Y0066038D01*
X0054820Y0066165D01*
X0054794Y0066293D01*
X0054772Y0066422D01*
X0054755Y0066551D01*
X0054741Y0066681D01*
X0054731Y0066811D01*
X0054725Y0066941D01*
X0054723Y0067072D01*
X0176621Y0058903D02*
X0176621Y0043903D01*
X0216621Y0043903D01*
X0216621Y0058903D01*
X0176621Y0058903D01*
X0192321Y0051403D02*
X0192323Y0051534D01*
X0192329Y0051664D01*
X0192339Y0051794D01*
X0192353Y0051924D01*
X0192370Y0052053D01*
X0192392Y0052182D01*
X0192418Y0052310D01*
X0192447Y0052437D01*
X0192480Y0052563D01*
X0192518Y0052688D01*
X0192558Y0052812D01*
X0192603Y0052935D01*
X0192651Y0053056D01*
X0192703Y0053176D01*
X0192759Y0053294D01*
X0192818Y0053410D01*
X0192881Y0053525D01*
X0192947Y0053637D01*
X0193016Y0053748D01*
X0193089Y0053856D01*
X0193165Y0053962D01*
X0193245Y0054066D01*
X0193327Y0054167D01*
X0193412Y0054266D01*
X0193501Y0054362D01*
X0193592Y0054455D01*
X0193686Y0054546D01*
X0193783Y0054633D01*
X0193882Y0054718D01*
X0193984Y0054799D01*
X0194088Y0054878D01*
X0194195Y0054953D01*
X0194304Y0055025D01*
X0194415Y0055094D01*
X0194528Y0055159D01*
X0194643Y0055221D01*
X0194760Y0055279D01*
X0194878Y0055334D01*
X0194998Y0055385D01*
X0195120Y0055432D01*
X0195243Y0055476D01*
X0195367Y0055516D01*
X0195492Y0055552D01*
X0195619Y0055585D01*
X0195746Y0055613D01*
X0195874Y0055638D01*
X0196003Y0055658D01*
X0196133Y0055675D01*
X0196262Y0055688D01*
X0196393Y0055697D01*
X0196523Y0055702D01*
X0196654Y0055703D01*
X0196784Y0055700D01*
X0196914Y0055693D01*
X0197045Y0055682D01*
X0197174Y0055667D01*
X0197303Y0055649D01*
X0197432Y0055626D01*
X0197560Y0055599D01*
X0197687Y0055569D01*
X0197813Y0055535D01*
X0197937Y0055497D01*
X0198061Y0055455D01*
X0198183Y0055409D01*
X0198304Y0055360D01*
X0198423Y0055307D01*
X0198541Y0055250D01*
X0198657Y0055190D01*
X0198771Y0055127D01*
X0198883Y0055060D01*
X0198993Y0054990D01*
X0199101Y0054916D01*
X0199206Y0054839D01*
X0199309Y0054759D01*
X0199410Y0054676D01*
X0199508Y0054590D01*
X0199603Y0054501D01*
X0199696Y0054409D01*
X0199786Y0054314D01*
X0199873Y0054217D01*
X0199957Y0054117D01*
X0200037Y0054014D01*
X0200115Y0053909D01*
X0200190Y0053802D01*
X0200261Y0053693D01*
X0200328Y0053581D01*
X0200393Y0053468D01*
X0200454Y0053352D01*
X0200511Y0053235D01*
X0200565Y0053116D01*
X0200615Y0052996D01*
X0200662Y0052874D01*
X0200704Y0052750D01*
X0200743Y0052626D01*
X0200779Y0052500D01*
X0200810Y0052373D01*
X0200838Y0052246D01*
X0200861Y0052118D01*
X0200881Y0051989D01*
X0200897Y0051859D01*
X0200909Y0051729D01*
X0200917Y0051599D01*
X0200921Y0051468D01*
X0200921Y0051338D01*
X0200917Y0051207D01*
X0200909Y0051077D01*
X0200897Y0050947D01*
X0200881Y0050817D01*
X0200861Y0050688D01*
X0200838Y0050560D01*
X0200810Y0050433D01*
X0200779Y0050306D01*
X0200743Y0050180D01*
X0200704Y0050056D01*
X0200662Y0049932D01*
X0200615Y0049810D01*
X0200565Y0049690D01*
X0200511Y0049571D01*
X0200454Y0049454D01*
X0200393Y0049338D01*
X0200328Y0049225D01*
X0200261Y0049113D01*
X0200190Y0049004D01*
X0200115Y0048897D01*
X0200037Y0048792D01*
X0199957Y0048689D01*
X0199873Y0048589D01*
X0199786Y0048492D01*
X0199696Y0048397D01*
X0199603Y0048305D01*
X0199508Y0048216D01*
X0199410Y0048130D01*
X0199309Y0048047D01*
X0199206Y0047967D01*
X0199101Y0047890D01*
X0198993Y0047816D01*
X0198883Y0047746D01*
X0198771Y0047679D01*
X0198657Y0047616D01*
X0198541Y0047556D01*
X0198423Y0047499D01*
X0198304Y0047446D01*
X0198183Y0047397D01*
X0198061Y0047351D01*
X0197937Y0047309D01*
X0197813Y0047271D01*
X0197687Y0047237D01*
X0197560Y0047207D01*
X0197432Y0047180D01*
X0197303Y0047157D01*
X0197174Y0047139D01*
X0197045Y0047124D01*
X0196914Y0047113D01*
X0196784Y0047106D01*
X0196654Y0047103D01*
X0196523Y0047104D01*
X0196393Y0047109D01*
X0196262Y0047118D01*
X0196133Y0047131D01*
X0196003Y0047148D01*
X0195874Y0047168D01*
X0195746Y0047193D01*
X0195619Y0047221D01*
X0195492Y0047254D01*
X0195367Y0047290D01*
X0195243Y0047330D01*
X0195120Y0047374D01*
X0194998Y0047421D01*
X0194878Y0047472D01*
X0194760Y0047527D01*
X0194643Y0047585D01*
X0194528Y0047647D01*
X0194415Y0047712D01*
X0194304Y0047781D01*
X0194195Y0047853D01*
X0194088Y0047928D01*
X0193984Y0048007D01*
X0193882Y0048088D01*
X0193783Y0048173D01*
X0193686Y0048260D01*
X0193592Y0048351D01*
X0193501Y0048444D01*
X0193412Y0048540D01*
X0193327Y0048639D01*
X0193245Y0048740D01*
X0193165Y0048844D01*
X0193089Y0048950D01*
X0193016Y0049058D01*
X0192947Y0049169D01*
X0192881Y0049281D01*
X0192818Y0049396D01*
X0192759Y0049512D01*
X0192703Y0049630D01*
X0192651Y0049750D01*
X0192603Y0049871D01*
X0192558Y0049994D01*
X0192518Y0050118D01*
X0192480Y0050243D01*
X0192447Y0050369D01*
X0192418Y0050496D01*
X0192392Y0050624D01*
X0192370Y0050753D01*
X0192353Y0050882D01*
X0192339Y0051012D01*
X0192329Y0051142D01*
X0192323Y0051272D01*
X0192321Y0051403D01*
D16*
X0106667Y0207498D02*
X0106067Y0207498D01*
X0106667Y0207498D02*
X0106667Y0208098D01*
X0106667Y0220298D02*
X0106667Y0220898D01*
X0106067Y0220898D01*
X0095467Y0220898D02*
X0093267Y0220898D01*
X0093267Y0220298D01*
X0093267Y0208098D02*
X0093267Y0207498D01*
X0093867Y0207498D01*
M02*
